<?xml version="1.0" standalone="no"?>
<!DOCTYPE svg PUBLIC "-//W3C//DTD SVG 20010904//EN"
 "http://www.w3.org/TR/2001/REC-SVG-20010904/DTD/svg10.dtd">
<svg version="1.0" xmlns="http://www.w3.org/2000/svg"
 width="415.000000pt" height="243.000000pt" viewBox="0 0 415.000000 243.000000"
 preserveAspectRatio="xMidYMid meet">

<g transform="translate(0.000000,243.000000) scale(0.100000,-0.100000)"
fill="#000000" stroke="none">
<path d="M700 1545 l0 -65 55 0 55 0 0 -410 0 -410 -55 0 -55 0 0 -65 0 -65
180 0 180 0 0 65 0 65 -55 0 -55 0 0 215 0 215 25 0 c16 0 25 6 25 15 0 10 10
15 30 15 20 0 30 5 30 15 0 12 13 15 55 15 42 0 55 -3 55 -15 0 -8 7 -15 15
-15 13 0 15 -39 15 -295 l0 -295 125 0 125 0 0 65 0 65 -55 0 -55 0 0 230 c0
198 -2 230 -15 230 -11 0 -15 12 -15 50 0 28 -4 50 -10 50 -5 0 -10 7 -10 15
0 10 -10 15 -30 15 -20 0 -30 5 -30 15 0 12 -14 15 -70 15 -56 0 -70 -3 -70
-15 0 -11 -12 -15 -45 -15 -33 0 -45 -4 -45 -15 0 -8 -4 -15 -10 -15 -5 0 -10
-7 -10 -15 0 -8 -7 -15 -15 -15 -13 0 -15 30 -15 210 l0 210 -125 0 -125 0 0
-65z"/>
<path d="M1480 1545 l0 -65 55 0 55 0 0 -410 0 -410 -55 0 -55 0 0 -65 0 -65
240 0 c207 0 240 2 240 15 0 11 11 15 40 15 33 0 40 3 40 20 0 15 7 20 25 20
16 0 25 6 25 15 0 8 7 15 15 15 8 0 15 7 15 15 0 8 7 15 15 15 10 0 15 11 15
35 0 24 5 35 15 35 12 0 15 17 15 95 0 78 -3 95 -15 95 -10 0 -15 11 -15 35 0
24 -5 35 -15 35 -8 0 -15 7 -15 15 0 8 -7 15 -15 15 -8 0 -15 7 -15 15 0 8 -4
15 -10 15 -5 0 -10 9 -10 20 0 11 -7 20 -15 20 -8 0 -15 7 -15 15 0 8 7 15 15
15 8 0 15 7 15 15 0 8 5 15 10 15 6 0 10 16 10 35 0 24 5 35 15 35 12 0 15 19
15 115 0 96 -3 115 -15 115 -10 0 -15 10 -15 30 0 17 -4 30 -10 30 -5 0 -10 7
-10 15 0 8 -7 15 -15 15 -8 0 -15 9 -15 20 0 17 -7 20 -40 20 -29 0 -40 4 -40
15 0 13 -33 15 -240 15 l-240 0 0 -65z m450 -80 c0 -8 7 -15 15 -15 8 0 15 -7
15 -15 0 -8 5 -15 10 -15 6 0 10 -9 10 -20 0 -11 7 -20 15 -20 12 0 15 -14 15
-65 0 -51 -3 -65 -15 -65 -10 0 -15 -10 -15 -30 0 -25 -4 -30 -25 -30 -18 0
-25 -5 -25 -20 0 -19 -7 -20 -100 -20 l-100 0 0 165 0 165 100 0 c82 0 100 -3
100 -15z m30 -460 c0 -9 9 -15 25 -15 18 0 25 -5 25 -20 0 -11 7 -20 15 -20
12 0 15 -19 15 -110 0 -91 -3 -110 -15 -110 -8 0 -15 -7 -15 -15 0 -9 -9 -15
-25 -15 -18 0 -25 -5 -25 -20 0 -19 -7 -20 -115 -20 l-115 0 0 180 0 180 115
0 c96 0 115 -3 115 -15z"/>
</g>
</svg>
